<?xml version="1.0" standalone="no"?>
<!DOCTYPE svg PUBLIC "-//W3C//DTD SVG 20010904//EN"
 "http://www.w3.org/TR/2001/REC-SVG-20010904/DTD/svg10.dtd">
<svg version="1.0" xmlns="http://www.w3.org/2000/svg"
 width="1092.000000pt" height="1092.000000pt" viewBox="0 0 1092.000000 1092.000000"
 preserveAspectRatio="xMidYMid meet">
<metadata>
Created by potrace 1.11, written by Peter Selinger 2001-2013
</metadata>
<g transform="translate(0.000000,1092.000000) scale(0.100000,-0.100000)"
fill="#000000" stroke="none">
<path d="M6218 9265 c-2 -1 -34 -5 -73 -9 -38 -3 -97 -8 -130 -12 -68 -6 -247
-40 -285 -53 -14 -5 -63 -19 -110 -32 -47 -12 -91 -27 -97 -32 -7 -5 -13 -7
-13 -4 0 4 -37 -9 -82 -28 -45 -19 -86 -35 -90 -35 -10 0 -280 -133 -338 -166
-463 -268 -916 -702 -1219 -1171 -144 -221 -159 -247 -256 -446 -146 -298
-279 -655 -320 -857 -2 -8 -10 -40 -18 -70 -14 -48 -23 -92 -41 -190 -3 -14
-9 -47 -15 -75 -5 -27 -12 -75 -15 -105 -4 -30 -8 -66 -10 -80 -37 -220 -43
-719 -12 -995 22 -190 67 -392 125 -557 184 -518 516 -819 1041 -942 58 -14
125 -27 150 -30 25 -3 74 -9 110 -13 143 -18 590 -7 730 17 30 5 75 12 99 15
69 8 289 61 403 96 391 120 784 326 996 523 40 37 120 136 151 189 38 62 68
165 70 238 2 81 -33 230 -91 382 l-11 27 -46 -42 c-70 -65 -111 -99 -161 -138
-25 -19 -47 -37 -50 -40 -13 -15 -186 -136 -280 -195 -138 -87 -399 -215 -526
-259 -179 -61 -322 -89 -474 -91 -117 -2 -316 15 -339 29 -4 3 -21 7 -38 10
-46 9 -168 61 -236 103 -128 77 -256 231 -331 396 -31 68 -77 205 -90 272 -4
17 -9 41 -12 55 -11 55 -24 149 -31 230 -14 158 -7 559 11 715 2 17 7 57 10
90 60 552 254 1239 473 1680 133 267 257 441 448 630 262 259 504 371 810 373
360 2 592 -127 759 -421 56 -99 117 -252 151 -377 13 -51 26 -94 27 -96 7 -6
213 102 288 150 257 166 387 357 396 581 14 352 -194 577 -641 695 -104 27
-144 35 -225 46 -19 2 -51 6 -70 10 -36 5 -466 14 -472 9z"/>
<path d="M8078 3405 c-2 -1 -36 -5 -76 -8 -41 -3 -75 -7 -77 -9 -2 -2 -6 -23
-9 -48 -25 -186 -176 -427 -458 -733 -50 -54 -94 -94 -99 -90 -11 11 -71 213
-125 418 -25 94 -57 197 -73 231 -29 62 -84 124 -136 152 -44 25 -194 23 -260
-2 -114 -44 -210 -117 -261 -197 l-25 -40 34 -39 c68 -80 109 -179 303 -736 8
-23 20 -56 28 -74 l13 -33 -69 -60 c-349 -300 -586 -573 -653 -752 -57 -151
-15 -248 135 -314 56 -24 114 -34 210 -35 l75 -1 -3 66 c-10 185 123 427 371
673 38 37 72 64 76 60 4 -5 18 -36 30 -69 44 -111 167 -359 224 -450 69 -111
114 -164 179 -210 47 -34 136 -66 168 -60 8 1 40 6 70 10 115 15 245 83 357
189 l55 52 -38 25 c-48 32 -137 118 -191 184 -101 125 -246 380 -319 563 l-37
93 219 217 c271 268 302 302 475 509 31 38 97 146 123 204 77 168 18 290 -147
305 -28 3 -60 6 -69 8 -9 2 -18 3 -20 1z"/>
</g>
</svg>
